Unfaithful*2002*[DVD5][PAL][ENG, POL]

General information:
Country: USA, Germany, France 
Release: 10 May 2002
Genre: Drama, Romance, Thriller 
Director: Adrian Lyne
Screenplay: Alvin Sargent, William Broyles
Original Music: Jan A.P. Kaczmarek
Cinematography by: Peter Biziou 
Duration: 1h 55mn
Language: English, Polish
Subtitles: English, Polish
Rating: 7.8/10 - 3496 votes

Cast:
Diane Lane  ...  Connie Sumner  
Erik Per Sullivan  ...  Charlie Sumner  
Richard Gere  ...  Ed Sumner  
Olivier Martinez  ...  Paul Martel  
Myra Lucretia Taylor  ...  Gloria  
Michelle Monaghan  ...  Lindsay  
Chad Lowe  ...  Bill Stone  
Joseph Badalucco Jr.  ...  Train conductor  
Erich Anderson  ...  Bob Gaylord  
Damon Gupton  ...  Other businessman  
Kate Burton  ...  Tracy  
Margaret Colin  ...  Sally  
Marc Forget  ...  Café bartender  
Larry Gleason  ...  Tim  
Dominic Chianese  ...  Frank Wilson  

Plot:
A New York suburban couple's marriage goes dangerously awry when the wife indulges in an adulterous fling.

Specifications:
General
Format                           : MPEG-PS
Overall bit rate                 : 5 359 Kbps

Video
Format                           : MPEG Video
Format version                   : Version 2
Format settings, BVOP            : Yes
Format settings, Matrix          : Default
Bit rate mode                    : Variable
Bit rate                         : 4 421 Kbps
Nominal bit rate                 : 7 782 Kbps
Width                            : 720 pixels
Height                           : 576 pixels
Display aspect ratio             : 16:9
Frame rate                       : 25.000 fps
Standard                         : PAL

Audio 1
Format                           : AC-3
Format/Info                      : Audio Coding 3
Mode extension                   : CM (complete main)
Bit rate mode                    : Constant
Bit rate                         : 448 Kbps
Channel(s)                       : 6 channels
Channel positions                : Front: L C R, Side: L R, LFE
Sampling rate                    : 48.0 KHz
Bit depth                        : 16 bits
Video delay                      : -320ms
Stream size                      : 85.6 MiB (8%)

Audio 2
Format                           : AC-3
Format/Info                      : Audio Coding 3
Mode extension                   : CM (complete main)
Bit rate mode                    : Constant
Bit rate                         : 384 Kbps
Channel(s)                       : 6 channels
Channel positions                : Front: L C R, Side: L R, LFE
Sampling rate                    : 48.0 KHz
Bit depth                        : 16 bits
Video delay                      : -320ms
Stream size                      : 73.4 MiB (7%)

Text 
Format                           : RLE
Format/Info                      : Run-length encoding
